<svg id="visual" viewBox="0 0 900 600" width="900" height="600" xmlns="http://www.w3.org/2000/svg" xmlns:xlink="http://www.w3.org/1999/xlink" version="1.1"><rect x="0" y="0" width="900" height="600" fill="#061833"></rect><path d="M0 167L16.7 168C33.3 169 66.7 171 100 183.2C133.3 195.3 166.7 217.7 200 227C233.3 236.3 266.7 232.7 300 223.5C333.3 214.3 366.7 199.7 400 193C433.3 186.3 466.7 187.7 500 197.8C533.3 208 566.7 227 600 226.3C633.3 225.7 666.7 205.3 700 201.3C733.3 197.3 766.7 209.7 800 214.7C833.3 219.7 866.7 217.3 883.3 216.2L900 215L900 0L883.3 0C866.7 0 833.3 0 800 0C766.7 0 733.3 0 700 0C666.7 0 633.3 0 600 0C566.7 0 533.3 0 500 0C466.7 0 433.3 0 400 0C366.7 0 333.3 0 300 0C266.7 0 233.3 0 200 0C166.7 0 133.3 0 100 0C66.7 0 33.3 0 16.7 0L0 0Z" fill="#fa7268"></path><path d="M0 166L16.7 159.7C33.3 153.3 66.7 140.7 100 139.2C133.3 137.7 166.7 147.3 200 158.7C233.3 170 266.7 183 300 187.3C333.3 191.7 366.7 187.3 400 175.8C433.3 164.3 466.7 145.7 500 147.3C533.3 149 566.7 171 600 176.2C633.3 181.3 666.7 169.7 700 174C733.3 178.3 766.7 198.7 800 208.2C833.3 217.7 866.7 216.3 883.3 215.7L900 215L900 0L883.3 0C866.7 0 833.3 0 800 0C766.7 0 733.3 0 700 0C666.7 0 633.3 0 600 0C566.7 0 533.3 0 500 0C466.7 0 433.3 0 400 0C366.7 0 333.3 0 300 0C266.7 0 233.3 0 200 0C166.7 0 133.3 0 100 0C66.7 0 33.3 0 16.7 0L0 0Z" fill="#f4685e"></path><path d="M0 187L16.7 184.8C33.3 182.7 66.7 178.3 100 164.7C133.3 151 166.7 128 200 124.2C233.3 120.3 266.7 135.7 300 141.5C333.3 147.3 366.7 143.7 400 141.3C433.3 139 466.7 138 500 142.5C533.3 147 566.7 157 600 163.7C633.3 170.3 666.7 173.7 700 176C733.3 178.3 766.7 179.7 800 173.7C833.3 167.7 866.7 154.3 883.3 147.7L900 141L900 0L883.3 0C866.7 0 833.3 0 800 0C766.7 0 733.3 0 700 0C666.7 0 633.3 0 600 0C566.7 0 533.3 0 500 0C466.7 0 433.3 0 400 0C366.7 0 333.3 0 300 0C266.7 0 233.3 0 200 0C166.7 0 133.3 0 100 0C66.7 0 33.3 0 16.7 0L0 0Z" fill="#ed5e55"></path><path d="M0 150L16.7 139C33.3 128 66.7 106 100 102.5C133.3 99 166.7 114 200 114.7C233.3 115.3 266.7 101.7 300 103C333.3 104.3 366.7 120.7 400 122.8C433.3 125 466.7 113 500 116.3C533.3 119.7 566.7 138.3 600 136.5C633.3 134.7 666.7 112.3 700 110C733.3 107.7 766.7 125.3 800 125.5C833.3 125.7 866.7 108.3 883.3 99.7L900 91L900 0L883.3 0C866.7 0 833.3 0 800 0C766.7 0 733.3 0 700 0C666.7 0 633.3 0 600 0C566.7 0 533.3 0 500 0C466.7 0 433.3 0 400 0C366.7 0 333.3 0 300 0C266.7 0 233.3 0 200 0C166.7 0 133.3 0 100 0C66.7 0 33.3 0 16.7 0L0 0Z" fill="#e7534b"></path><path d="M0 115L16.7 108.8C33.3 102.7 66.7 90.3 100 86.2C133.3 82 166.7 86 200 89C233.3 92 266.7 94 300 94C333.3 94 366.7 92 400 93.2C433.3 94.3 466.7 98.7 500 100.5C533.3 102.3 566.7 101.7 600 102.2C633.3 102.7 666.7 104.3 700 105C733.3 105.7 766.7 105.3 800 107.5C833.3 109.7 866.7 114.3 883.3 116.7L900 119L900 0L883.3 0C866.7 0 833.3 0 800 0C766.7 0 733.3 0 700 0C666.7 0 633.3 0 600 0C566.7 0 533.3 0 500 0C466.7 0 433.3 0 400 0C366.7 0 333.3 0 300 0C266.7 0 233.3 0 200 0C166.7 0 133.3 0 100 0C66.7 0 33.3 0 16.7 0L0 0Z" fill="#e04842"></path><path d="M0 81L16.7 80.3C33.3 79.7 66.7 78.3 100 79.5C133.3 80.7 166.7 84.3 200 81.3C233.3 78.3 266.7 68.7 300 61.7C333.3 54.7 366.7 50.3 400 51.7C433.3 53 466.7 60 500 58.7C533.3 57.3 566.7 47.7 600 50.7C633.3 53.7 666.7 69.3 700 71C733.3 72.7 766.7 60.3 800 54.2C833.3 48 866.7 48 883.3 48L900 48L900 0L883.3 0C866.7 0 833.3 0 800 0C766.7 0 733.3 0 700 0C666.7 0 633.3 0 600 0C566.7 0 533.3 0 500 0C466.7 0 433.3 0 400 0C366.7 0 333.3 0 300 0C266.7 0 233.3 0 200 0C166.7 0 133.3 0 100 0C66.7 0 33.3 0 16.7 0L0 0Z" fill="#da3c38"></path><path d="M0 58L16.7 51.8C33.3 45.7 66.7 33.3 100 28.7C133.3 24 166.7 27 200 32.2C233.3 37.3 266.7 44.7 300 44.3C333.3 44 366.7 36 400 31.7C433.3 27.3 466.7 26.7 500 27C533.3 27.3 566.7 28.7 600 28.7C633.3 28.7 666.7 27.3 700 28.5C733.3 29.7 766.7 33.3 800 34C833.3 34.7 866.7 32.3 883.3 31.2L900 30L900 0L883.3 0C866.7 0 833.3 0 800 0C766.7 0 733.3 0 700 0C666.7 0 633.3 0 600 0C566.7 0 533.3 0 500 0C466.7 0 433.3 0 400 0C366.7 0 333.3 0 300 0C266.7 0 233.3 0 200 0C166.7 0 133.3 0 100 0C66.7 0 33.3 0 16.7 0L0 0Z" fill="#d32f2f"></path></svg>